<?xml version="1.0" encoding="UTF-8" standalone="no"?>
<!-- Created with Inkscape (http://www.inkscape.org/) -->

<svg
   width="24.855495mm"
   height="30.688496mm"
   viewBox="0 0 24.855495 30.688496"
   version="1.1"
   id="svg1"
   inkscape:version="1.4 (86a8ad7, 2024-10-11)"
   sodipodi:docname="logo-icon.svg"
   xmlns:inkscape="http://www.inkscape.org/namespaces/inkscape"
   xmlns:sodipodi="http://sodipodi.sourceforge.net/DTD/sodipodi-0.dtd"
   xmlns="http://www.w3.org/2000/svg"
   xmlns:svg="http://www.w3.org/2000/svg">
  <sodipodi:namedview
     id="namedview1"
     pagecolor="#ffffff"
     bordercolor="#000000"
     borderopacity="0.25"
     inkscape:showpageshadow="2"
     inkscape:pageopacity="0.0"
     inkscape:pagecheckerboard="0"
     inkscape:deskcolor="#d1d1d1"
     inkscape:document-units="mm"
     inkscape:zoom="0.76167929"
     inkscape:cx="159.51596"
     inkscape:cy="261.92126"
     inkscape:window-width="1920"
     inkscape:window-height="1057"
     inkscape:window-x="-8"
     inkscape:window-y="-8"
     inkscape:window-maximized="1"
     inkscape:current-layer="layer1" />
  <defs
     id="defs1">
    <linearGradient
       id="SVGID_00000036241251371368342110000013575462431749275013_"
       gradientUnits="userSpaceOnUse"
       x1="369.1676"
       y1="374.65121"
       x2="320.46219"
       y2="285.17529"
       gradientTransform="matrix(0.26458333,0,0,0.26458333,-18.515277,3.5324517)">
				<stop
   offset="0"
   style="stop-color:#9A1DFF"
   id="stop50" />

				<stop
   offset="1"
   style="stop-color:#FFB332"
   id="stop51" />

			</linearGradient>
  </defs>
  <g
     inkscape:label="Layer 1"
     inkscape:groupmode="layer"
     id="layer1"
     transform="translate(-62.706249,-79.110415)">
    <path
       style="fill:url(#SVGID_00000036241251371368342110000013575462431749275013_);stroke-width:0.264583"
       d="m 87.453786,88.014174 c -0.31406,-2.20345 -1.35546,-4.285457 -2.933171,-5.863432 -1.963208,-1.960562 -4.57147,-3.040327 -7.344833,-3.040327 H 66.043439 v 17.654588 l 9.82927,-9.826096 h -5.29e-4 l 1.362604,-1.362604 c 0.617538,0.009 1.209146,0.160337 1.741752,0.437091 l -7.402777,7.402777 -8.86751,8.865399 h 3.33719 v 7.51734 l 6.465622,-6.46536 v -3.454402 h 4.494477 c 2.85803,0 5.539846,-1.116277 7.552002,-3.14272 1.958182,-1.972469 3.025775,-4.571471 3.005932,-7.317317 -0.0021,-0.453231 -0.03836,-0.925777 -0.107686,-1.404937 z M 74.001311,86.938907 h -1.49225 v -1.365515 h 2.857765 z m 6.038321,-0.11774 c 0.720196,0.770202 1.095904,1.770592 1.055158,2.826544 -0.07911,2.077773 -1.887537,3.76846 -4.031191,3.76846 h -3.618971 z m 3.577167,8.982869 c -1.761861,1.77456 -4.110567,2.751931 -6.613261,2.751931 h -5.817393 v 4.229363 l -3.81979,3.81979 v -5.64674 h -1.466056 l 6.221148,-6.219557 h 4.941887 c 2.846123,0 5.247481,-2.261393 5.353315,-5.040841 0.05583,-1.437481 -0.463021,-2.800086 -1.460765,-3.837252 -0.999331,-1.038754 -2.341827,-1.610783 -3.779837,-1.610783 h -5.989902 v 4.011347 h 1.49225 L 67.36662,93.571217 V 80.432803 h 9.809427 c 2.420144,0 4.696618,0.942181 6.409796,2.652977 1.396206,1.396471 2.280972,3.16521 2.558785,5.114925 v 0.0013 c 0.06059,0.4191 0.09234,0.830791 0.09446,1.224491 0.01693,2.392627 -0.914135,4.657461 -2.622285,6.377517 z"
       id="path51" />
  </g>
</svg>
