<svg xmlns="http://www.w3.org/2000/svg" width="24" height="24" stroke-width="1.5" stroke="#808080" fill="none" stroke-linejoin="round" stroke-linecap="round" viewBox="0 0 24 24"> <g fill="none" fill-rule="evenodd"><rect width="24" height="24" style="stroke:rgba(0,0,0,0)"></rect><path d="M12,2 C17.522,2 22,6.478 22,12 C22,15.183 20.513,18.019 18.196,19.85 L18,20 C16.328,21.257 14.251,22 12,22 C6.477,22 2,17.523 2,12 C2,6.478 6.477,2 12,2 Z M18,20 C18,16.687 15.313,14 12,14 C8.687,14 6,16.687 6,20 M12,8 C10.343,8 9,9.344 9,11 C9,12.657 10.343,14 12,14 C13.656,14 15,12.657 15,11 C15,9.344 13.656,8 12,8 Z" stroke="#808080"></path></g></svg>